<?xml version="1.0" standalone="no"?>
<!DOCTYPE svg PUBLIC "-//W3C//DTD SVG 20010904//EN"
 "http://www.w3.org/TR/2001/REC-SVG-20010904/DTD/svg10.dtd">
<svg version="1.0" xmlns="http://www.w3.org/2000/svg"
 width="300.000000pt" height="300.000000pt" viewBox="0 0 300.000000 300.000000"
 preserveAspectRatio="xMidYMid meet">
<metadata>
Created by potrace 1.10, written by Peter Selinger 2001-2011
</metadata>
<g transform="translate(0.000000,300.000000) scale(0.100000,-0.100000)"
fill="#22b7dd" stroke="none">
<path d="M700 2616 c-150 -34 -282 -158 -329 -310 -10 -33 -44 -196 -75 -361
-32 -165 -71 -370 -87 -455 -200 -1030 -201 -1041 -153 -1137 31 -63 89 -117
163 -152 l56 -26 940 0 c1021 0 980 -2 1102 58 143 69 233 198 272 387 11 52
22 102 26 111 5 12 -17 31 -89 78 -120 78 -247 151 -359 207 -99 50 -357 121
-542 149 -132 19 -445 30 -570 18 l-89 -8 -19 -78 c-11 -43 -16 -81 -13 -84 4
-4 77 3 164 15 280 39 365 44 642 39 257 -6 351 -14 370 -33 11 -11 -20 -156
-58 -268 l-27 -81 -70 -8 c-83 -10 -1427 -2 -1469 9 -28 7 -28 8 -22 58 4 28
33 197 66 376 32 179 73 404 90 500 48 265 118 603 137 662 l18 53 55 8 c30 4
420 6 865 5 772 -3 812 -4 848 -22 105 -52 154 -158 173 -373 6 -66 9 -72 28
-69 12 2 22 9 23 17 1 8 16 93 33 189 36 199 37 298 5 365 -30 61 -112 139
-165 155 -64 19 -1858 25 -1940 6z m1933 -25 c20 -6 37 -16 37 -21 0 -6 3 -9
8 -8 29 6 121 -109 107 -133 -5 -7 -4 -10 2 -6 27 17 28 -133 3 -273 -12 -63
-25 -137 -30 -164 -11 -57 -21 -73 -20 -30 1 32 -2 52 -24 139 -8 33 -14 61
-14 63 0 2 -12 26 -26 55 -50 100 -102 139 -206 152 -71 9 -1564 9 -1629 0
-28 -4 -59 -14 -70 -23 -23 -21 -47 -87 -63 -174 -7 -38 -15 -68 -18 -68 -3 0
-7 -19 -9 -42 -1 -23 -11 -79 -22 -125 -10 -47 -26 -123 -34 -171 -14 -85 -31
-179 -81 -457 -14 -77 -30 -162 -34 -190 -16 -91 -22 -119 -36 -190 -8 -38
-17 -86 -19 -105 -3 -19 -7 -50 -10 -68 -15 -88 27 -101 313 -102 955 0 1210
1 1233 8 27 8 70 39 84 61 6 10 4 12 -5 6 -10 -6 -12 -4 -7 9 4 10 10 29 13
42 3 13 10 24 15 24 5 0 6 7 3 15 -4 8 -1 15 6 15 6 0 9 4 6 9 -4 5 -2 21 4
36 5 14 12 40 15 57 3 17 10 39 15 49 10 17 12 17 53 -2 23 -11 50 -23 60 -26
9 -3 17 -9 17 -14 0 -5 7 -9 15 -9 8 0 23 -8 33 -18 10 -9 25 -18 33 -20 7 -2
16 -7 19 -11 3 -4 12 -10 20 -13 25 -9 189 -118 196 -130 6 -9 -9 -98 -24
-138 -2 -8 -6 -28 -8 -44 -1 -15 -19 -61 -38 -101 -64 -130 -212 -234 -363
-254 -75 -10 -1015 -7 -1031 3 -6 3 -13 3 -15 -1 -3 -5 -189 -8 -414 -8 -475
1 -469 0 -553 85 -82 81 -94 113 -86 224 3 50 6 101 6 114 0 13 3 21 8 19 4
-3 8 9 8 26 1 18 4 43 7 57 3 14 12 63 21 110 8 47 20 112 26 145 7 33 14 74
17 90 2 17 7 37 10 45 4 8 5 21 4 27 -1 7 2 13 7 13 4 0 7 13 6 30 -1 16 2 27
7 24 5 -3 9 7 8 23 -1 31 7 94 17 133 4 14 8 34 9 45 4 32 13 64 22 78 11 18
13 38 2 31 -12 -7 -11 3 1 25 5 10 12 36 15 57 3 22 7 48 9 59 7 29 14 59 16
65 1 3 1 16 1 31 -1 14 4 45 12 70 8 24 15 53 15 64 2 28 7 48 13 60 4 6 5 20
4 33 -1 12 1 22 4 22 3 0 7 10 8 23 5 76 7 86 16 80 7 -4 8 1 4 12 -13 32 42
240 73 275 11 13 20 26 20 29 1 19 119 125 169 151 71 37 94 37 1046 35 695
-1 939 -5 968 -14z m-1093 -1435 c14 -2 39 -6 55 -9 17 -3 55 -9 85 -12 30 -3
83 -14 118 -23 l62 -18 -197 -1 c-193 -1 -373 -14 -528 -38 -124 -19 -160 -23
-167 -19 -12 7 -10 64 2 64 6 0 9 3 9 8 -1 4 0 10 1 15 1 4 3 12 4 18 0 6 23
13 51 16 27 2 51 6 54 8 4 5 402 -3 451 -9z"/>
<path d="M1526 1919 c-2 -8 -11 -66 -20 -129 -25 -169 -26 -170 -45 -170 -9 0
-57 9 -106 19 -93 20 -294 45 -301 38 -6 -6 -52 -254 -60 -324 l-7 -63 69 0
c152 0 572 -61 730 -106 161 -45 291 -95 429 -165 152 -76 411 -243 445 -286
37 -47 132 -144 138 -139 8 8 -67 187 -106 251 -79 132 -201 268 -343 380
-100 79 -140 103 -354 211 -199 100 -202 104 -171 178 l15 36 185 0 c256 0
311 9 596 94 89 27 315 117 328 131 4 4 -2 5 -13 0 -84 -33 -172 -58 -249 -71
-129 -23 -484 -15 -649 15 -114 20 -465 97 -493 108 -8 3 -16 -1 -18 -8z m109
-35 c11 -2 61 -13 110 -24 87 -20 129 -30 140 -31 2 0 19 -5 37 -10 18 -5 53
-12 78 -15 25 -3 65 -9 90 -14 71 -15 183 -22 343 -22 81 0 147 -3 147 -8 0
-11 -122 -47 -225 -67 -61 -11 -156 -18 -294 -20 -230 -3 -240 -6 -260 -72
-10 -35 -9 -46 4 -75 9 -19 24 -36 33 -39 46 -14 239 -108 259 -125 13 -11 23
-18 23 -16 0 3 6 2 13 -3 6 -4 15 -8 19 -8 3 0 21 -13 40 -30 18 -16 33 -28
33 -26 0 1 12 -3 27 -10 15 -6 25 -15 23 -19 -3 -4 3 -7 13 -6 9 0 16 -5 15
-11 -2 -7 1 -12 5 -10 18 5 216 -178 269 -249 62 -81 73 -99 73 -109 0 -7 9
-20 20 -30 11 -10 17 -22 14 -26 -3 -5 -1 -9 4 -9 10 0 25 -40 27 -70 0 -8 6
-14 12 -13 6 1 13 -7 16 -17 8 -29 -18 -25 -38 6 -25 39 -78 88 -132 123 -26
17 -53 35 -59 40 -28 23 -179 111 -269 156 -55 28 -102 52 -105 56 -11 12
-222 92 -275 104 -40 9 -74 18 -95 26 -14 5 -39 12 -55 14 -25 5 -67 13 -97
21 -5 1 -20 2 -34 3 -14 0 -23 4 -21 9 3 4 -11 7 -31 7 -21 0 -59 4 -87 8 -27
4 -75 10 -105 13 -30 3 -62 7 -70 11 -8 3 -64 7 -125 10 -60 2 -115 6 -122 8
-11 4 -12 21 -2 40 3 6 5 25 4 42 -2 18 0 31 4 29 3 -2 7 12 8 32 1 21 2 45 3
55 1 9 5 17 9 17 4 0 5 14 3 31 -4 24 -2 30 8 24 9 -5 11 -4 6 4 -4 6 -4 25
-1 42 7 29 9 31 43 24 21 -4 53 -8 72 -10 85 -7 160 -18 160 -24 0 -3 10 -7
23 -8 12 -1 48 -4 79 -7 32 -3 57 -2 57 2 -4 23 2 42 11 37 6 -4 7 5 4 23 -4
17 -1 32 5 36 6 4 11 31 11 61 0 30 4 57 10 60 5 3 8 19 6 35 -4 33 7 41 44
33 14 -2 34 -7 45 -9z"/>
<path d="M2415 1650 c-112 -24 -203 -32 -398 -35 -93 -2 -171 -5 -174 -8 -3
-3 -2 -19 2 -36 6 -28 21 -38 169 -110 238 -118 355 -199 512 -355 l131 -131
33 187 c48 275 41 315 -81 437 -36 36 -98 75 -111 70 -2 -1 -39 -9 -83 -19z
m199 -89 c32 -34 55 -61 51 -61 -5 0 0 -9 10 -20 10 -11 20 -37 22 -58 5 -50
3 -124 -3 -134 -4 -7 -44 -232 -44 -250 0 -21 -28 2 -151 122 -74 72 -138 130
-144 130 -6 0 -26 13 -45 30 -19 16 -38 29 -41 30 -3 0 -44 22 -90 48 -46 27
-129 70 -184 97 -175 86 -168 97 54 99 88 1 164 5 167 9 4 4 24 7 44 7 20 0
61 4 91 10 30 5 74 12 98 15 25 3 47 7 49 10 10 10 60 -27 116 -84z"/>
</g>
</svg>
